<svg width="43" height="43" viewBox="0 0 43 43" fill="none" xmlns="http://www.w3.org/2000/svg">
<circle cx="21.5" cy="21.5" r="21.5" fill="#9A8AB1"/>
<g clip-path="url(#clip0_44_1560)">
<path d="M26.2719 12.9795H17.8333C13.7439 12.9795 10.4004 16.3278 10.4004 20.4204V22.5491C10.4004 26.642 13.7439 29.9909 17.8333 29.9909H19.1617V32.645C19.1617 32.645 21.9948 31.8674 26.2719 30.4496C31.2764 28.7908 33.7074 26.642 33.7074 22.5491V20.4204C33.7074 16.3278 30.3613 12.9795 26.2719 12.9795Z" fill="white"/>
<path d="M17.8335 26.0511C15.318 26.0511 13.2722 24.0022 13.2722 21.4846C13.2722 18.9667 15.3178 16.9189 17.8335 16.9189H26.2721C28.7881 16.9189 30.8331 18.9667 30.8331 21.4846C30.8331 24.0025 28.7881 26.0511 26.2721 26.0511H17.8335Z" fill="#533A8A"/>
<path d="M32.5159 18.0947C34.0119 18.3 35.1 19.0461 35.1 21.2837C35.1 23.4016 34.1105 24.1874 32.7221 24.4384L32.5156 18.0947H32.5159Z" fill="white"/>
<path d="M21.5825 9.63763V12.3909H22.5203V9.63848C23.0654 9.44543 21.0383 9.4443 21.5825 9.63763Z" fill="#DFE9F2"/>
<path d="M25.3948 14.0401C25.3948 12.9026 23.6796 11.9805 22.0538 11.9805C20.428 11.9805 18.7134 12.9026 18.7134 14.0401C18.7134 15.1777 20.4283 16.099 22.0538 16.099C23.6794 16.099 25.3948 15.1771 25.3948 14.0401Z" fill="white"/>
<path d="M23.4567 8.31557C23.4567 7.53996 22.8283 6.91113 22.0538 6.91113C21.2793 6.91113 20.6511 7.53996 20.6511 8.31557C20.6511 9.09118 21.2793 9.72001 22.0538 9.72001C22.8283 9.72001 23.4567 9.09118 23.4567 8.31557Z" fill="white"/>
<path d="M10.8891 24.3226C9.76552 23.9814 9.00464 23.1527 9.00464 21.2829C9.00464 19.1767 9.98417 18.3875 11.3613 18.1328L10.8888 24.3223L10.8891 24.3226Z" fill="white"/>
<path d="M24.9204 21.4853C24.9204 20.8102 25.4686 20.2637 26.1416 20.2637C26.8145 20.2637 27.3638 20.8102 27.3638 21.4853C27.3638 22.1604 26.8179 22.7072 26.1416 22.7072C25.4652 22.7072 24.9204 22.1615 24.9204 21.4853Z" fill="#31F0FF"/>
<path d="M16.7427 21.4853C16.7427 20.8102 17.2886 20.2637 17.9624 20.2637C18.6362 20.2637 19.1836 20.8102 19.1836 21.4853C19.1836 22.1604 18.6374 22.7072 17.9624 22.7072C17.2875 22.7072 16.7427 22.1615 16.7427 21.4853Z" fill="#31F0FF"/>
</g>
<defs>
<clipPath id="clip0_44_1560">
<rect width="26.0953" height="25.7341" fill="white" transform="translate(9.00464 6.91113)"/>
</clipPath>
</defs>
</svg>
